<svg xmlns="http://www.w3.org/2000/svg" width="80" height="22" fill="none"><path fill="#5534DA" d="M5.03 17.507V4.872H0V1.935h13.699v2.937h-5.03v12.635H5.03ZM21.696 17.507V15.17l-.225-.512v-4.182c0-.741-.232-1.32-.696-1.735-.45-.415-1.145-.623-2.088-.623-.644 0-1.28.104-1.91.312a4.888 4.888 0 0 0-1.571.8l-1.258-2.424c.659-.46 1.452-.816 2.38-1.068a10.75 10.75 0 0 1 2.83-.378c1.842 0 3.271.43 4.29 1.29 1.018.86 1.527 2.202 1.527 4.027v6.829h-3.28Zm-3.683.177c-.943 0-1.752-.155-2.426-.467-.673-.326-1.19-.763-1.55-1.312a3.297 3.297 0 0 1-.538-1.846c0-.712.172-1.335.516-1.869.36-.534.921-.949 1.685-1.246.763-.311 1.759-.467 2.987-.467h3.211v2.024h-2.83c-.823 0-1.392.134-1.706.4-.3.268-.45.601-.45 1.002 0 .445.173.8.517 1.068.36.252.846.378 1.46.378.584 0 1.108-.134 1.572-.4.464-.282.8-.69 1.01-1.224l.54 1.602c-.255.77-.72 1.356-1.393 1.757-.674.4-1.542.6-2.605.6ZM31.7 17.684c-1.033 0-2.029-.118-2.987-.355-.943-.253-1.692-.564-2.246-.935l1.168-2.491c.554.341 1.205.623 1.954.845a8.537 8.537 0 0 0 2.245.312c.809 0 1.378-.097 1.707-.29.345-.192.517-.46.517-.8 0-.282-.135-.49-.404-.623-.255-.149-.6-.26-1.034-.334a51.233 51.233 0 0 0-1.437-.222c-.509-.075-1.025-.17-1.55-.29a5.599 5.599 0 0 1-1.437-.578 3.019 3.019 0 0 1-1.055-1.023c-.255-.43-.382-.986-.382-1.668 0-.757.217-1.424.651-2.002.45-.579 1.093-1.031 1.932-1.357.838-.341 1.841-.512 3.009-.512.823 0 1.662.089 2.515.267.853.178 1.565.437 2.134.778l-1.168 2.47a5.713 5.713 0 0 0-1.774-.69 7.648 7.648 0 0 0-1.707-.2c-.779 0-1.348.104-1.707.311-.36.208-.539.475-.539.801 0 .297.128.52.382.667.27.149.621.267 1.056.356.434.09.905.17 1.414.245.524.06 1.048.156 1.572.29.524.133.996.325 1.415.578.434.237.786.57 1.056 1 .27.416.404.964.404 1.647a3.14 3.14 0 0 1-.674 1.98c-.449.563-1.1 1.008-1.954 1.334-.838.326-1.864.49-3.076.49ZM41.952 15.06l.09-4.227 5.637-5.294h4.177l-5.413 5.45-1.819 1.468-2.672 2.603Zm-2.897 2.447V1h3.503v16.506h-3.503Zm9.005 0-4.087-5.028 2.2-2.691 6.132 7.719H48.06ZM53.37 17.507V5.539h3.503v11.968H53.37ZM55.122 3.87c-.644 0-1.168-.186-1.572-.557a1.796 1.796 0 0 1-.607-1.379c0-.548.202-1.008.607-1.379.404-.37.928-.556 1.572-.556.643 0 1.167.178 1.572.534.404.341.606.786.606 1.335 0 .578-.202 1.06-.606 1.445-.39.371-.914.557-1.573.557ZM60.04 17.507V5.272c0-1.35.405-2.425 1.214-3.225.808-.816 1.96-1.224 3.458-1.224.51 0 .996.052 1.46.156.479.104.883.267 1.213.49l-.921 2.513a2.395 2.395 0 0 0-.652-.312 2.568 2.568 0 0 0-.763-.11c-.51 0-.906.147-1.19.444-.27.282-.405.712-.405 1.29v1.112l.09 1.49v9.61h-3.503Zm-1.863-9.032v-2.67h8.377v2.67h-8.377Z"/><path fill="#5534DA" d="M69.535 22c-.629 0-1.25-.096-1.864-.29-.614-.192-1.115-.459-1.505-.8l1.28-2.47a3.048 3.048 0 0 0 1.977.757c.494 0 .883-.119 1.167-.356.3-.222.57-.6.809-1.134l.629-1.468.27-.379L76.63 5.54H80L74.543 18.24c-.39.964-.839 1.72-1.348 2.269-.494.548-1.048.934-1.661 1.156-.6.223-1.266.334-2 .334Zm2.066-4.026-5.39-12.435h3.616l4.177 10.01-2.403 2.425Z"/></svg>