<svg xmlns="http://www.w3.org/2000/svg" width="20" height="20" fill="none"><path fill="#787486" d="M8.734 17.917a.694.694 0 0 1-.485-.188.772.772 0 0 1-.247-.469L7.76 15.38a4.414 4.414 0 0 1-1.316-.747l-1.74.734a.712.712 0 0 1-.532.027.762.762 0 0 1-.414-.336l-1.253-2.183a.74.74 0 0 1-.088-.527.721.721 0 0 1 .28-.452l1.507-1.14a4.174 4.174 0 0 1-.041-.373 5.828 5.828 0 0 1 0-.735 6.13 6.13 0 0 1 .04-.401l-1.506-1.14a.738.738 0 0 1-.284-.452.703.703 0 0 1 .092-.527l1.253-2.166a.763.763 0 0 1 .41-.337.702.702 0 0 1 .528.027l1.74.726c.2-.159.415-.304.643-.436.229-.132.453-.238.673-.319l.25-1.881a.771.771 0 0 1 .247-.469.694.694 0 0 1 .485-.188h2.524c.187 0 .35.063.49.188.14.126.223.282.25.47l.243 1.888c.25.091.476.197.678.319.203.12.407.264.613.428l1.773-.726a.716.716 0 0 1 .527-.03c.173.056.31.167.41.332l1.253 2.174c.1.165.131.34.092.527a.739.739 0 0 1-.284.452L15.764 9.27c.03.134.047.26.05.377.002.117.003.235.003.354 0 .113-.002.228-.008.345-.005.117-.024.25-.057.401l1.522 1.148c.15.114.246.265.285.452a.703.703 0 0 1-.093.527l-1.253 2.17a.772.772 0 0 1-.42.339.72.72 0 0 1-.538-.025l-1.723-.734c-.206.165-.416.31-.631.437-.215.126-.435.23-.66.31l-.242 1.89a.764.764 0 0 1-.251.468.709.709 0 0 1-.49.188H8.734Zm.433-1.25h1.638l.3-2.232a4.644 4.644 0 0 0 1.165-.474 5.146 5.146 0 0 0 1.019-.789l2.07.87.82-1.416-1.807-1.363c.07-.215.117-.427.142-.634a5.219 5.219 0 0 0 0-1.257 3.252 3.252 0 0 0-.142-.618l1.824-1.378-.82-1.417-2.095.883a4.437 4.437 0 0 0-1.003-.79 4.306 4.306 0 0 0-1.182-.486l-.262-2.232H9.18l-.276 2.224c-.425.1-.818.255-1.178.462-.36.207-.703.474-1.03.801l-2.07-.862-.821 1.417 1.8 1.341c-.07.198-.119.403-.147.617a5.235 5.235 0 0 0 0 1.313c.028.208.074.413.138.616l-1.791 1.363.82 1.416 2.063-.875c.316.325.654.591 1.014.798.36.208.758.367 1.194.478l.27 2.224Zm.843-4.166a2.41 2.41 0 0 0 1.77-.73 2.41 2.41 0 0 0 .73-1.77 2.41 2.41 0 0 0-.73-1.77 2.41 2.41 0 0 0-1.77-.73c-.702 0-1.294.243-1.777.73A2.421 2.421 0 0 0 7.51 10c0 .693.241 1.283.723 1.77.483.486 1.075.73 1.777.73Z"/></svg>