<svg xmlns="http://www.w3.org/2000/svg" width="20" height="20" fill="none"><path fill="#ffffff" d="M9.375 10.708v2.709c0 .177.06.325.18.445s.268.18.445.18c.178 0 .326-.06.446-.18s.18-.268.18-.445v-2.709h2.708c.177 0 .325-.06.445-.18.12-.119.18-.267.18-.445a.605.605 0 0 0-.18-.445.605.605 0 0 0-.445-.18h-2.709V6.75a.605.605 0 0 0-.18-.446.605.605 0 0 0-.445-.179.605.605 0 0 0-.445.18.605.605 0 0 0-.18.445v2.708H6.667a.605.605 0 0 0-.446.18.605.605 0 0 0-.179.445c0 .178.06.326.18.446s.268.18.445.18h2.708Zm-4.952 6.459c-.42 0-.777-.146-1.069-.438a1.454 1.454 0 0 1-.437-1.069V4.506c0-.42.146-.777.437-1.069A1.454 1.454 0 0 1 4.424 3h11.153c.421 0 .778.146 1.07.438.29.291.437.647.437 1.068V15.66c0 .421-.146.777-.438 1.07a1.454 1.454 0 0 1-1.069.437H4.423Zm0-1.25h11.154a.245.245 0 0 0 .177-.08.245.245 0 0 0 .08-.177V4.506a.245.245 0 0 0-.08-.176.245.245 0 0 0-.177-.08H4.423a.245.245 0 0 0-.176.08.245.245 0 0 0-.08.176V15.66c0 .064.027.123.08.176.054.054.112.08.176.08Z"/></svg>