<svg xmlns="http://www.w3.org/2000/svg" width="20" height="20" viewBox="0 0 20 20" fill="none">
<path d="M4.42341 18.658C4.00246 18.658 3.64616 18.5121 3.35449 18.2205C3.06283 17.9288 2.91699 17.5725 2.91699 17.1515V5.99775C2.91699 5.5768 3.06283 5.22049 3.35449 4.92883C3.64616 4.63716 4.00246 4.49133 4.42341 4.49133H5.57726V3.36952C5.57726 3.18684 5.63843 3.03433 5.76076 2.91199C5.88308 2.78968 6.03559 2.72852 6.21828 2.72852C6.40096 2.72852 6.55347 2.78968 6.6758 2.91199C6.79812 3.03433 6.85928 3.18684 6.85928 3.36952V4.49133H13.1734V3.3535C13.1734 3.17615 13.2332 3.02765 13.3528 2.90799C13.4725 2.78834 13.621 2.72852 13.7983 2.72852C13.9757 2.72852 14.1242 2.78834 14.2438 2.90799C14.3635 3.02765 14.4233 3.17615 14.4233 3.3535V4.49133H15.5772C15.9981 4.49133 16.3545 4.63716 16.6461 4.92883C16.9378 5.22049 17.0836 5.5768 17.0836 5.99775V17.1515C17.0836 17.5725 16.9378 17.9288 16.6461 18.2205C16.3545 18.5121 15.9981 18.658 15.5772 18.658H4.42341ZM4.42341 17.408H15.5772C15.6413 17.408 15.7001 17.3813 15.7535 17.3278C15.8069 17.2744 15.8336 17.2156 15.8336 17.1515V9.33108H4.16697V17.1515C4.16697 17.2156 4.19368 17.2744 4.2471 17.3278C4.30053 17.3813 4.3593 17.408 4.42341 17.408ZM4.16697 8.0811H15.8336V5.99775C15.8336 5.93363 15.8069 5.87486 15.7535 5.82143C15.7001 5.76802 15.6413 5.74131 15.5772 5.74131H4.42341C4.3593 5.74131 4.30053 5.76802 4.2471 5.82143C4.19368 5.87486 4.16697 5.93363 4.16697 5.99775V8.0811Z" fill="#9FA6B2"/>
</svg>