<svg xmlns="http://www.w3.org/2000/svg" width="24" height="24" fill="none"><path fill="#9FA6B2" d="M15.773 12.973 14.65 11.85c.17-.89-.063-1.649-.702-2.277-.638-.628-1.404-.87-2.298-.723l-1.123-1.123c.232-.108.47-.185.716-.233.246-.047.498-.071.757-.071 1.135 0 2.098.396 2.89 1.187.791.792 1.187 1.755 1.187 2.89 0 .259-.022.511-.066.757a2.702 2.702 0 0 1-.238.716Zm3.18 3.111L17.85 15.05c.633-.483 1.2-1.02 1.7-1.613.5-.591.917-1.237 1.25-1.937a9.773 9.773 0 0 0-3.612-4.013A9.545 9.545 0 0 0 12 6c-.483 0-.954.033-1.412.1-.459.067-.921.167-1.388.3L8.035 5.235a10.218 10.218 0 0 1 1.945-.556c.66-.12 1.334-.18 2.02-.18 2.149 0 4.122.56 5.921 1.676a11.208 11.208 0 0 1 4.15 4.533 1.613 1.613 0 0 1 .19.792c0 .143-.012.28-.037.409-.025.128-.07.256-.137.383a9.557 9.557 0 0 1-1.333 2.085 10.915 10.915 0 0 1-1.8 1.707ZM12 18.5c-2.105 0-4.035-.563-5.788-1.688a12.453 12.453 0 0 1-4.183-4.445 1.374 1.374 0 0 1-.183-.413 1.805 1.805 0 0 1-.057-.454c0-.154.016-.303.05-.446.033-.144.091-.284.175-.421.371-.68.793-1.327 1.263-1.942A9.45 9.45 0 0 1 4.9 7.038L2.642 4.765a.74.74 0 0 1-.204-.53.724.724 0 0 1 .22-.524.718.718 0 0 1 .527-.217c.206 0 .382.073.527.217l16.576 16.577c.139.139.212.31.22.515a.698.698 0 0 1-.22.54.718.718 0 0 1-.526.216.718.718 0 0 1-.527-.217l-3.52-3.488a9.052 9.052 0 0 1-1.818.494A11.79 11.79 0 0 1 12 18.5ZM5.954 8.092a9.68 9.68 0 0 0-1.58 1.536A8.838 8.838 0 0 0 3.2 11.5a9.773 9.773 0 0 0 3.613 4.012A9.544 9.544 0 0 0 12 17c.43 0 .852-.029 1.268-.087.416-.057.83-.146 1.24-.267l-1.266-1.296a2.464 2.464 0 0 1-.606.18 4.133 4.133 0 0 1-.636.047c-1.134 0-2.098-.396-2.89-1.188-.791-.791-1.187-1.755-1.187-2.89 0-.22.017-.433.052-.635.035-.202.093-.404.175-.606L5.954 8.092Z"/></svg>