<svg xmlns="http://www.w3.org/2000/svg" width="22" height="22" fill="none"><g fill="#fff" clip-path="url(#a)"><path d="M15.584 21.084H6.417a5.5 5.5 0 0 1-5.5-5.5V6.417a5.5 5.5 0 0 1 5.5-5.5h9.167a5.5 5.5 0 0 1 5.5 5.5v9.167a5.5 5.5 0 0 1-5.5 5.5ZM6.417 2.75A3.667 3.667 0 0 0 2.75 6.417v9.167a3.667 3.667 0 0 0 3.667 3.666h9.167a3.667 3.667 0 0 0 3.666-3.666V6.417a3.667 3.667 0 0 0-3.666-3.667H6.417Z"/><path d="M11 16.5a5.5 5.5 0 1 1 0-11 5.5 5.5 0 0 1 0 11Zm0-9.167a3.667 3.667 0 1 0 0 7.334 3.667 3.667 0 0 0 0-7.334ZM16.5 5.5a.917.917 0 1 0 0-1.833.917.917 0 0 0 0 1.833Z"/></g><defs><clipPath id="a"><path fill="#fff" d="M0 0h22v22H0z"/></clipPath></defs></svg>