<svg xmlns="http://www.w3.org/2000/svg" width="29" height="34" fill="none"><g fill="#5534DA" clip-path="url(#a)"><path d="M28.994 2.532a.066.066 0 0 0-.075-.035c-.27.115-.54.212-.82.314-.766.282-1.563.468-2.36.654-.913.203-1.844.349-2.752.574-.784.19-1.564.42-2.317.72-.567.221-1.126.46-1.648.765-.62.34-1.121.849-1.609 1.352-.447.469-.899.937-1.293 1.454a7.78 7.78 0 0 0-.585.928c.28-1.052.669-2.112 1.382-2.952.053-.066-.009-.146-.084-.11-.182.088-.35.203-.523.31-1.32.892-2.498 2.001-3.513 3.225-.496.605-.975 1.224-1.369 1.9a11.05 11.05 0 0 0-1.05 2.524 8.356 8.356 0 0 1 .089-1.56c.013-.093.026-.181.03-.274 0-.062.018-.15-.044-.186-.044-.022-.088 0-.12.036-.04.04-.07.084-.106.128-.07.093-.141.19-.208.287-.221.314-.42.645-.594.99-.425.87-.815 1.75-1.209 2.634-.399.883-.766 1.785-1.152 2.673-.368.84-.77 1.666-1.187 2.484-.226.437-.457.875-.727 1.29-.115.177-.235.35-.359.517.018-.035.036-.066.053-.101.364-.712.612-1.472.838-2.236.186-.491.372-.982.58-1.459.244-.543.46-1.096.67-1.653a21.71 21.71 0 0 1 1.497-3.036c.372-.632.77-1.25 1.134-1.891.34-.601.611-1.237.921-1.852.23-.46.466-.919.665-1.392.058-.132.115-.27.168-.406.022-.067.049-.137.062-.208 0-.026.005-.057-.013-.084-.04-.062-.12-.04-.168 0a9.601 9.601 0 0 0-.412.332c-.443.375-.904.729-1.378 1.065 1.014-1.229 2.095-2.484 2.583-4.03.035-.133.133-.465.035-.575-.066-.058-.142.022-.181.07a13.346 13.346 0 0 1-1.33 1.454c.186-.291.364-.592.523-.901.266-.53.527-1.065.744-1.618.257-.676.452-1.37.656-2.059.208-.751.394-1.511.62-2.258.023-.07.045-.142.058-.217 0-.022.009-.048 0-.07-.013-.04-.062-.067-.102-.053a.262.262 0 0 0-.102.057c-.452.424-.855.897-1.29 1.335-.318.327-.642.658-.947.998a11.809 11.809 0 0 0-1.6 2.28 9.288 9.288 0 0 0-.859 2.383c-.24 1.078-.319 2.183-.47 3.274a4.943 4.943 0 0 1-.296-1.48 138.03 138.03 0 0 1-.027-.526c0-.084 0-.265-.129-.225-.04.022-.062.066-.084.11a4.19 4.19 0 0 0-.11.248c-.111.256-.235.503-.35.755-.328.707-.612 1.44-.758 2.205a9.517 9.517 0 0 0-.195 1.905c0 .893.137 1.772.133 2.67-.244-.394-.492-.792-.594-1.251a8.397 8.397 0 0 1-.128-.65c-.01-.062-.022-.128-.031-.19-.01-.044-.01-.102-.045-.133-.08-.061-.132.045-.15.11-.15.478-.226.982-.244 1.486-.022.508.027 1.016.075 1.524.045.46.093.92.124 1.384-.022.168-.03.335-.044.503a19.226 19.226 0 0 1-.306 2.466c-.106.654-.243 1.3-.474 1.927a7.09 7.09 0 0 1-.522 1.29c-.036.058-.067.12-.098.177-.43.765-.824 1.547-1.258 2.307-.261.446-.514.902-.749 1.366-.173.3-.332.605-.47.919-.119.265-.234.535-.34.804-.04.115-.156.345-.094.46.093.084.169-.027.226-.146a.28.28 0 0 0 .036-.04c.035-.049.066-.097.093-.15.07-.12.142-.234.208-.35.292-.507.576-1.02.864-1.533.43-.795.9-1.569 1.373-2.342.08-.128.155-.256.235-.389.098-.141.195-.278.297-.42.182-.247.377-.486.59-.707.26-.287.589-.565.894-.808.443-.358.842-.765 1.232-1.176.908-.985 1.763-2.02 2.65-3.027a20.376 20.376 0 0 1 1.9-2.006c.5-.42 1.019-.822 1.546-1.207.842-.6 1.728-1.136 2.565-1.745.988-.72 1.954-1.472 2.84-2.316.027-.031.058-.066.04-.11-.018-.058-.089-.05-.137-.036-.2.053-.39.133-.585.181-.2.044-.403.084-.603.12a9.072 9.072 0 0 1-1.657.154c.315-.12.634-.234.953-.34.793-.239 1.595-.442 2.37-.734 1.378-.473 2.583-1.321 3.686-2.253.27-.226.545-.451.793-.703.045-.053.111-.102.12-.177 0-.088-.106-.088-.173-.07-.62.132-1.245.26-1.874.326-.416.04-.85.071-1.267-.004.483-.146.97-.274 1.466-.376.461-.092.926-.18 1.374-.318.695-.203 1.32-.6 1.852-1.087a15.6 15.6 0 0 0 .908-.963c.31-.354.59-.734.917-1.074.43-.45.9-.862 1.4-1.229.372-.291.771-.539 1.183-.773.031-.018.062-.027.093-.044.027-.018.036-.049.022-.08h-.018ZM4.782 23.528h-.008.008Zm1.06-4.75c.34-1.114.668-2.232 1.023-3.342.332-1.135.664-2.271 1.014-3.398.39-1.335.7-2.691 1.112-4.022.293-.936.62-1.864.988-2.775.333-.822.705-1.63 1.21-2.364-.412.977-.838 1.944-1.196 2.939-.346.87-.638 1.759-.891 2.66-.616 1.993-.988 4.052-1.582 6.05a46.468 46.468 0 0 1-.841 2.63c-.217.623-.474 1.246-.687 1.869-.474 1.383-.913 2.78-1.453 4.14a6.63 6.63 0 0 0-.027.027.089.089 0 0 0-.049.004c.093-.291.182-.587.257-.883.36-1.185.754-2.356 1.121-3.536ZM19.158 7.914c-.514.353-1.028.707-1.515 1.091-.81.646-1.6 1.313-2.384 1.989-.456.407-.868.862-1.298 1.3-.425.441-.855.874-1.258 1.334-.536.596-1.086 1.184-1.6 1.803a25.76 25.76 0 0 0-1.27 1.661c-.302.403-.608.805-.891 1.22-.337.482-.687.95-1.024 1.432-.337.486-.669.972-.997 1.463-.208.31-.416.623-.66.91-.288.34-.585.698-.912 1.012-.125.11-.244.221-.364.336h-.004c-.058-.013-.058-.066-.045-.11.235-.261.47-.518.7-.783.28-.322.532-.667.767-1.02 1.25-1.821 2.512-3.637 3.854-5.396.501-.65 1.02-1.29 1.578-1.892.961-1.016 1.953-1.997 2.946-2.987 1.28-1.273 2.645-2.466 4.129-3.496a25.646 25.646 0 0 1 3.74-2.064c-1.215.65-2.349 1.441-3.492 2.201v-.004ZM20.25 30.276a.914.914 0 0 1-.138.203c-.558.58-1.382.88-2.162 1.034-.789.164-1.6.013-2.37-.159.766-.632 1.626-1.37 1.798-2.4.169-1.232-.997-2.032-2.117-2.085-3.748-.124-7.133 1.904-10.31 3.659-1.205.658-2.547 1.502-3.978 1.17-.2-.057-.403-.185-.466-.397.005-.057-.022-.124-.08-.15-.442-.088-.128.535.076.645 1.759 1.003 4.204-.857 5.76-1.662 1.603-.875 3.26-1.758 5.006-2.329 1.449-.428 3.163-.905 4.656-.503.762.22 1.356 1.016 1.112 1.812-.305.919-1.098 1.568-1.838 2.143-1.166-.279-2.375-.583-3.58-.411-.665.12-1.431.354-1.763.99-.519 1.043.78 1.246 1.533 1.224 1.413-.044 2.76-.623 3.876-1.476 1.267.331 2.521.455 3.757-.066.558-.257 1.192-.54 1.493-1.11.093-.172-.182-.313-.27-.141l.004.009Zm-8.901 2.488c-.408-.031-1.126.026-1.299-.429-.026-.574.612-.91 1.09-1.056 1.228-.371 2.521-.062 3.735.221-1.023.747-2.25 1.228-3.526 1.264Z"/></g><defs><clipPath id="a"><path fill="#fff" d="M.202 0H29v33.069H.202z"/></clipPath></defs></svg>