<svg xmlns="http://www.w3.org/2000/svg" width="22" height="22" viewBox="0 0 22 22" fill="none">
<path d="M9.98709 12.0122H5.59922C5.31501 12.0122 5.07515 11.9144 4.87966 11.7189C4.68417 11.5234 4.58643 11.2836 4.58643 10.9994C4.58643 10.7152 4.68417 10.4753 4.87966 10.2798C5.07515 10.0844 5.31501 9.98661 5.59922 9.98661H9.98709V5.59873C9.98709 5.31452 10.0848 5.07467 10.2803 4.87917C10.4758 4.68368 10.7157 4.58594 10.9999 4.58594C11.2841 4.58594 11.5239 4.68368 11.7194 4.87917C11.9149 5.07467 12.0126 5.31452 12.0126 5.59873V9.98661H16.4005C16.6847 9.98661 16.9246 10.0844 17.1201 10.2798C17.3156 10.4753 17.4133 10.7152 17.4133 10.9994C17.4133 11.2836 17.3156 11.5234 17.1201 11.7189C16.9246 11.9144 16.6847 12.0122 16.4005 12.0122H12.0126V16.4C12.0126 16.6842 11.9149 16.9241 11.7194 17.1196C11.5239 17.3151 11.2841 17.4128 10.9999 17.4128C10.7157 17.4128 10.4758 17.3151 10.2803 17.1196C10.0848 16.9241 9.98709 16.6842 9.98709 16.4V12.0122Z" fill="#5534DA"/>
</svg>